<svg xmlns="http://www.w3.org/2000/svg" id="Layer_1" viewBox="0 0 60 60"> <defs> <style> .cls-1 { fill: #00aeef; } .cls-2 { fill: #fff; } </style> </defs> <title>AEH_PopHealth_SD-Icons_MASTER-2-12-2</title> <circle class="cls-1" cx="30" cy="30" r="30"></circle> <g> <rect class="cls-2" x="27.06" y="22.1" width="11.7" height="1.85"></rect> <rect class="cls-2" x="27.06" y="27.63" width="11.7" height="1.85"></rect> <rect class="cls-2" x="27.06" y="33.17" width="11.36" height="1.85"></rect> <rect class="cls-2" x="27.06" y="38.71" width="11.36" height="1.85"></rect> <polygon class="cls-2" points="22.14 24.27 19.58 21.83 20.22 21.16 22.02 22.88 24.8 19.1 25.55 19.65 22.14 24.27"></polygon> <polygon class="cls-2" points="22.14 30.13 19.58 27.69 20.22 27.02 22.02 28.74 24.8 24.96 25.55 25.51 22.14 30.13"></polygon> <polygon class="cls-2" points="22.14 35.63 19.58 33.19 20.22 32.52 22.02 34.24 24.8 30.46 25.55 31.01 22.14 35.63"></polygon> <path class="cls-2" d="M34.89,11.93l-.57-1.49H31a1.58,1.58,0,1,0-3.15,0H24.78l-.51,1.49H15.19v36.3H44.11V11.93Zm7.37,34.46H17V13.78h6.61l-.52,1.51h13l-.58-1.51h6.67Z"></path> </g> </svg>