<svg id="Layer_1" data-name="Layer 1" xmlns="http://www.w3.org/2000/svg" width="21" height="21" viewBox="0 0 21 21">
  <defs>
    <style>
      .cls-1 {
        fill: #00aeef;
      }

      .cls-2 {
        fill: #fff;
      }
    </style>
  </defs>
  <title>AEH_PopHealth_SD-Icons_MASTER</title>
  <path class="cls-1" d="M20.58,10.5a10,10,0,1,1-10-10,10,10,0,0,1,10,10"/>
  <g>
    <path class="cls-2" d="M10.58,17.67a7.48,7.48,0,1,1,7.48-7.48,7.49,7.49,0,0,1-7.48,7.48m0-13.57a6.09,6.09,0,1,0,6.09,6.09A6.1,6.1,0,0,0,10.58,4.1"/>
    <path class="cls-2" d="M11,13.38l.18,1.29H10l.18-1.28a4.58,4.58,0,0,1-2-.45l.2-1.43a3,3,0,0,0,2.15.72q1.15,0,1.15-.61a.65.65,0,0,0-.38-.55,4.27,4.27,0,0,0-.89-.39l-1-.34a2.24,2.24,0,0,1-.9-.53,1.2,1.2,0,0,1-.37-.89,1.71,1.71,0,0,1,.5-1.2,2.43,2.43,0,0,1,1.59-.64L10,5.8h1.21L11,7.08a5.35,5.35,0,0,1,1,.17,3.19,3.19,0,0,1,.76.28l-.12,1.3a4.33,4.33,0,0,0-1.94-.59q-1.27,0-1.26.53c0,.19.12.35.37.47a5.7,5.7,0,0,0,.92.35l1.1.33a1.93,1.93,0,0,1,.93.6,1.62,1.62,0,0,1,.37,1.09,1.67,1.67,0,0,1-.08.53,1.75,1.75,0,0,1-.3.52,1.65,1.65,0,0,1-.67.46,3.68,3.68,0,0,1-1.1.25"/>
  </g>
</svg>
