<svg id="Layer_1" data-name="Layer 1" xmlns="http://www.w3.org/2000/svg" width="21" height="21" viewBox="0 0 21 21">
  <defs>
    <style>
      .cls-1 {
        fill: #00aeef;
      }

      .cls-2 {
        fill: #fff;
      }
    </style>
  </defs>
  <title>AEH_PopHealth_SD-Icons_MASTER</title>
  <path class="cls-1" d="M20.5,10.5a10,10,0,1,1-10-10,10,10,0,0,1,10,10"/>
  <g>
    <path class="cls-2" d="M6.16,6.67a.81.81,0,1,0-.81-.81.81.81,0,0,0,.81.81"/>
    <path class="cls-2" d="M10.54,6.67a.81.81,0,1,0-.81-.81.81.81,0,0,0,.81.81"/>
    <path class="cls-2" d="M5,11.24l-.18,3.52a.53.53,0,1,0,1.06.07l.18-3.47h.21l.24,3.47a.53.53,0,0,0,1.06-.07l-.3-4.39a1.12,1.12,0,0,0,0-.12V8.44l1-1.25L9.43,8.52v.37l-.08,3.34h0l-.13,2.53a.53.53,0,0,0,1.06.07l.14-2.61h.31l.18,2.61A.53.53,0,0,0,12,14.76l-.17-2.53h0l-.11-3.54V8.44l1-1.24,1.11,1.33v1.73a1,1,0,0,0,0,.14l-.23,4.37a.53.53,0,1,0,1.06.07l.18-3.47H15l.24,3.47a.53.53,0,0,0,1.06-.07L16,10.37a1,1,0,0,0,0-.12V8.44l1.41-1.68a.52.52,0,0,0-.8-.67L15.56,7.37a1,1,0,0,1-1.32,0h0L13.12,6.09a.59.59,0,0,0-.86,0L11.18,7.37a1,1,0,0,1-1.32,0h0L8.75,6.09a.6.6,0,0,0-.86,0L6.79,7.37a1,1,0,0,1-1.32,0L4.36,6.09a.52.52,0,1,0-.8.67L5,8.52v1.73a1,1,0,0,0,0,.14l0,.84"/>
    <path class="cls-2" d="M14.92,5.05a.81.81,0,1,1-.81.81.81.81,0,0,1,.81-.81"/>
  </g>
</svg>
