<svg id="Layer_1" data-name="Layer 1" xmlns="http://www.w3.org/2000/svg" width="21" height="21" viewBox="0 0 21 21">
  <defs>
    <style>
      .cls-1 {
        fill: #00aeef;
      }

      .cls-2 {
        fill: #fff;
      }
    </style>
  </defs>
  <title>AEH_PopHealth_SD-Icons_MASTER</title>
  <path class="cls-1" d="M20.5,10.5a10,10,0,1,1-10-10,10,10,0,0,1,10,10"/>
  <g>
    <path class="cls-2" d="M11.56,3.34q0,.75,0,1.5,0,1.79-.06,3.57,0,2.13,0,4.27c0,.84,0,1.69,0,2.53,0,.4,0,.8,0,1.2a3.44,3.44,0,0,0,.06,1.16.71.71,0,0,0,.21.33.58.58,0,0,0,.34.12.61.61,0,0,0,.38-.11,1,1,0,0,0,.31-.82c0-.43-.06-.87-.07-1.3,0-.74-.06-1.49-.09-2.23s-.05-1.36,0-2c0-.27-.06-.85.13-1.08l0,0c.71-.37.67-1,.67-3.26,0-1.62-.6-3.77-1.39-4.12a.32.32,0,0,0-.42.31"/>
    <path class="cls-2" d="M9.52,3c-.09,0,0,2.35,0,2.39a.25.25,0,0,1-.23,0S9,3,9,3,8.84,5.35,8.76,5.4a.23.23,0,0,1-.24,0c-.05,0-.1-2.4-.18-2.4S8.06,5.38,8,5.41a.22.22,0,0,1-.19,0C7.68,5.35,7.71,3,7.63,3A11.65,11.65,0,0,0,7.09,6.4c0,1.57.11,1.77,1,2.67.38.36-.59,8.09,0,8.72a.61.61,0,0,0,.89,0c.64-.64-.34-8.31.09-8.75a2.74,2.74,0,0,0,1-2.66A13.8,13.8,0,0,0,9.52,3"/>
  </g>
</svg>
