<svg id="Layer_1" data-name="Layer 1" xmlns="http://www.w3.org/2000/svg" width="21" height="21" viewBox="0 0 21 21">
  <defs>
    <style>
      .cls-1 {
        fill: #00aeef;
      }

      .cls-2 {
        fill: #fff;
      }
    </style>
  </defs>
  <title>AEH_PopHealth_SD-Icons_MASTER</title>
  <path class="cls-1" d="M20.5,10.5a10,10,0,1,1-10-10,10,10,0,0,1,10,10"/>
  <g>
    <path class="cls-2" d="M12.29,6.19A1,1,0,0,0,13,4.41h0a1,1,0,0,0-.54-.24h-.25a1,1,0,0,0-.54.24h0a1,1,0,0,0,.67,1.78Z"/>
    <path class="cls-2" d="M13.56,9.28l-1.37-1,.06-.2.09-.25a1.15,1.15,0,0,0-.74-1.45l-.13,0h-.14l-1.19-.2a1.84,1.84,0,0,0-1.45.79l-.64.83c-.32.4-.38.89-.14,1.08s.61-.05.93-.45l.9-1.12.26,0L9.72,8h0L9,9.89l-.11.26L8.26,12l-.17.45-1.29,0h0l-.27,0a1.48,1.48,0,0,0-.85.21.56.56,0,0,0-.28.44.53.53,0,0,0,.18.39,1.41,1.41,0,0,0,.91.33l.15,0,1.78.09a.66.66,0,0,0,.49-.18A1.55,1.55,0,0,0,9.34,13l.39-1,.19-.45,1.35,1.38.12,1.44h0l.07.87a1.48,1.48,0,0,0,.31.82.56.56,0,0,0,.47.23.53.53,0,0,0,.37-.23,1.41,1.41,0,0,0,.22-.94l-.05-.75-.13-1.83-1.41-1.76.53-1.37,1.12.81c.41.31.9.36,1.08.11S14,9.59,13.56,9.28Z"/>
  </g>
</svg>
