<svg id="Layer_1" data-name="Layer 1" xmlns="http://www.w3.org/2000/svg" width="21" height="21" viewBox="0 0 21 21">
  <defs>
    <style>
      .cls-1 {
        fill: #00aeef;
      }

      .cls-2 {
        fill: #fff;
      }
    </style>
  </defs>
  <title>AEH_PopHealth_SD-Icons_MASTER</title>
  <path class="cls-1" d="M20.51,10.5a10,10,0,1,1-10-10,10,10,0,0,1,10,10"/>
  <g>
    <path class="cls-2" d="M12,9.61A3,3,0,0,1,15,9.45L15,9.29a3.13,3.13,0,0,0-3,.16Z"/>
    <path class="cls-2" d="M12,9.83l-.15-.46.12-.06a3.27,3.27,0,0,1,3.17-.16l.11.06-.15.46-.16-.08a2.87,2.87,0,0,0-2.78.16Z"/>
    <path class="cls-2" d="M12,10.68a3.14,3.14,0,0,1,3-.16l-.05.17a3,3,0,0,0-2.92.16Z"/>
    <path class="cls-2" d="M12,11.06l-.15-.45.12-.06a3.28,3.28,0,0,1,3.17-.16l.11.06-.15.46-.16-.08a2.88,2.88,0,0,0-2.78.16Z"/>
    <path class="cls-2" d="M12,8.22a3.14,3.14,0,0,1,3-.16L15,8.22A3,3,0,0,0,12,8.38Z"/>
    <path class="cls-2" d="M12,8.6l-.15-.46.12-.06a3.28,3.28,0,0,1,3.17-.16L15.2,8l-.15.46-.16-.08a2.88,2.88,0,0,0-2.78.16Z"/>
    <path class="cls-2" d="M16.15,6.79v7c-2.79-1.77-5.21-.15-5.21.13V8.06c0-1,1.39-1.61,3.09-1.61a12.21,12.21,0,0,1,2.11.35l.61-.57a7.2,7.2,0,0,0-6.19.53c-.43-.42-2.91-1.87-6.31-.39v8.1H9.42a1.87,1.87,0,0,0,1.09.26,1.88,1.88,0,0,0,1.09-.26h5.16V6.22Zm-6,7.16c0-.28-2.42-1.9-5.21-.13V7A4.29,4.29,0,0,1,7,6.45c1.71,0,3.09.57,3.09,1.61Z"/>
    <polygon class="cls-2" points="9.21 9.29 8.06 9.29 8.06 8.14 7 8.14 7 9.29 5.85 9.29 5.85 10.36 7 10.36 7 11.51 8.06 11.51 8.06 10.36 9.21 10.36 9.21 9.29"/>
  </g>
</svg>
