<svg id="Layer_1" data-name="Layer 1" xmlns="http://www.w3.org/2000/svg" width="21" height="21" viewBox="0 0 21 21">
  <defs>
    <style>
      .cls-1 {
        fill: #00aeef;
      }

      .cls-2, .cls-4 {
        fill: #fff;
        stroke: #00aeef;
      }

      .cls-2, .cls-3, .cls-4 {
        stroke-linecap: round;
        stroke-linejoin: round;
      }

      .cls-2 {
        stroke-width: 0.63px;
      }

      .cls-3 {
        fill: none;
        stroke: #fff;
      }

      .cls-3, .cls-4 {
        stroke-width: 0.63px;
      }
    </style>
  </defs>
  <title>AEH_PopHealth_SD-Icons_MASTER</title>
  <path class="cls-1" d="M20.5,10.5a10,10,0,1,1-10-10,10,10,0,0,1,10,10"/>
  <g>
    <path class="cls-2" d="M6.69,8.69a5.16,5.16,0,0,0,1.37-.86c.9-1,1.63-1,1.63-1a1,1,0,0,1,.93.77h0a1,1,0,0,1,1.42,1.19l0,0h.1A1,1,0,0,1,13,10.33v0a1,1,0,0,1,.3.7s.13.47-.86,1.51c0,0-2.15,2.78-3.45,3.2s-1.2.24-1.2.24L6.72,17.09,4.13,14.76l1.12-1.18C4.1,11.75,6.39,8.77,6.69,8.69a2.93,2.93,0,0,1,1-.09A7,7,0,0,1,9,9l0,0a7.11,7.11,0,0,1,1.07.8l.16.16a4.43,4.43,0,0,1,.42,1l.11.34c.08.28.13.5.07.53a1.14,1.14,0,0,1-.24.07,1,1,0,0,1-1.13-1.36s-.3.66-1.51.36l-.09.18s1.85.7.44,2.62"/>
    <line class="cls-3" x1="6.23" y1="4.72" x2="7.45" y2="5.94"/>
    <line class="cls-3" x1="10.68" y1="5.33" x2="10.68" y2="3.68"/>
    <line class="cls-3" x1="15.22" y1="9.9" x2="16.87" y2="9.9"/>
    <line class="cls-3" x1="13.62" y1="6.74" x2="14.85" y2="5.51"/>
    <line class="cls-3" x1="14.35" y1="12.4" x2="15.57" y2="13.62"/>
    <polygon class="cls-4" points="10.21 9.94 10.21 9.95 10.21 9.94 10.21 9.94"/>
  </g>
</svg>
