<svg id="legal-assistance" data-name="legal-assistance" xmlns="http://www.w3.org/2000/svg" width="21" height="21" viewBox="0 0 40 40">
  <defs>
    <style>
      .cls-1 {
        fill: #00aeef;
      }

      .cls-2 {
        fill: #fff;
      }
    </style>
  </defs>
  <title>Legal Assistance SDH</title>
  <circle class="cls-1" cx="20" cy="20" r="20"/>
  <path class="cls-2" d="M32.2,19,29.42,9.54l1.4-.26-.22-1.21L20.37,10V9a1.47,1.47,0,1,0-1.23,0V10.2L8.9,12.09l.22,1.21,1.21-.22L7.49,22.43H6.27V23a4.8,4.8,0,0,0,9.6,0v-.61H14.66l-2.84-9.64,7.32-1.35V31.09H14.75v1.23H25V31.09h-4.6V11.21l7.45-1.38L25,19H23.81v.61a4.8,4.8,0,0,0,9.6,0V19ZM11.07,26.62a3.58,3.58,0,0,1-3.52-3h.76l.08,0v0h5.35v0l.06,0h.78A3.58,3.58,0,0,1,11.07,26.62Zm-2.3-4.19,2.34-7.72,2.27,7.72ZM28.66,11.29,30.93,19H26.31Zm0,11.9a3.58,3.58,0,0,1-3.52-3h.76l.08,0v0h5.35v0l.06,0h.78A3.58,3.58,0,0,1,28.61,23.2Z"/>
</svg>
