<svg id="Layer_1" data-name="Layer 1" xmlns="http://www.w3.org/2000/svg" width="21" height="21" viewBox="0 0 21 21">
  <defs>
    <style>
      .cls-1 {
        fill: #00aeef;
      }

      .cls-2 {
        fill: #fff;
      }
    </style>
  </defs>
  <title>AEH_PopHealth_SD-Icons_MASTER</title>
  <path class="cls-1" d="M20.5,10.5a10,10,0,1,1-10-10,10,10,0,0,1,10,10"/>
  <path class="cls-2" d="M14.75,9.43,13.53,8.06a3.6,3.6,0,0,0-2.66-1H8.15C6.24,7.09,5,9.28,5,9.28s-2.09.26-2.09,2.1c0,1.16,1.33,1.14,1.33,1.14H4.3s0,0,0,0a1.36,1.36,0,0,0,2.72,0s0,0,0,0h6.23s0,0,0,0a1.36,1.36,0,1,0,2.72,0s0,0,0,0h.19c1.58,0,1.94-.52,1.94-1.08,0-1.7-3.34-2-3.34-2m-5.07.08-4,0S6.77,7.93,7.57,7.74a13.61,13.61,0,0,1,2.11-.08Zm1.36,0H10.5V7.65c3-.06,3.56,1.86,3.56,1.86Z"/>
</svg>
