<svg id="Layer_1" data-name="Layer 1" xmlns="http://www.w3.org/2000/svg" width="21" height="21" viewBox="0 0 21 21">
  <defs>
    <style>
      .cls-1 {
        fill: #00aeef;
      }

      .cls-2 {
        fill: #fff;
      }
    </style>
  </defs>
  <title>AEH_PopHealth_SD-Icons_MASTER</title>
  <path class="cls-1" d="M20.6,10.5a10,10,0,1,1-10-10,10,10,0,0,1,10,10"/>
  <g>
    <path class="cls-2" d="M10.69,6.37a3.2,3.2,0,0,0-3.2,3.2,3.29,3.29,0,0,0,.43,1.6,8.47,8.47,0,0,1,1.12,3c.11.65.26.8.74.8H11.6c.49,0,.64-.15.74-.8a8.47,8.47,0,0,1,1.12-3,3.29,3.29,0,0,0,.43-1.6,3.2,3.2,0,0,0-3.2-3.2"/>
    <path class="cls-2" d="M11.84,15.88H9.55a.17.17,0,0,0-.17.17v.11a.17.17,0,0,0,.17.17h2.29a.17.17,0,0,0,.17-.17V16a.17.17,0,0,0-.17-.17"/>
    <path class="cls-2" d="M11.84,16.56H9.55a.17.17,0,0,0-.17.17v.11a.17.17,0,0,0,.17.17h2.29a.17.17,0,0,0,.17-.17v-.11a.17.17,0,0,0-.17-.17"/>
    <path class="cls-2" d="M9.38,17.36H12c0,.56-.7.94-1.32.94s-1.32-.38-1.32-.94"/>
    <path class="cls-2" d="M5.83,10.52H4a.33.33,0,1,1,0-.65H5.83a.33.33,0,0,1,0,.65"/>
    <path class="cls-2" d="M6.86,6.78a.33.33,0,0,1-.23-.1L5.41,5.46A.33.33,0,0,1,5.87,5L7.09,6.22a.33.33,0,0,1-.23.56"/>
    <path class="cls-2" d="M14.49,6.78a.33.33,0,0,1-.23-.56L15.49,5a.33.33,0,1,1,.46.46L14.73,6.69a.33.33,0,0,1-.23.1"/>
    <path class="cls-2" d="M10.51,5.16a.33.33,0,0,1-.33-.33V3a.33.33,0,1,1,.65,0V4.83a.33.33,0,0,1-.33.33"/>
    <path class="cls-2" d="M17.18,10.52H15.37a.33.33,0,0,1,0-.65h1.81a.33.33,0,0,1,0,.65"/>
  </g>
</svg>
