<svg id="Layer_1" data-name="Layer 1" xmlns="http://www.w3.org/2000/svg" width="40" height="40" viewBox="0 0 40 40">
  <defs>
    <style>
      .cls-1 {
        fill: #00aeef;
      }

      .cls-2 {
        fill: #fff;
      }
    </style>
  </defs>
  <title>AEH_PopHealth_SD-Icons_MASTER-2</title>
  <circle class="cls-1" cx="20" cy="20" r="20"/>
  <g>
    <path class="cls-2" d="M12.44,13.88A1.41,1.41,0,1,0,11,12.47a1.41,1.41,0,0,0,1.41,1.41"/>
    <path class="cls-2" d="M20.07,13.88a1.41,1.41,0,1,0-1.41-1.41,1.41,1.41,0,0,0,1.41,1.41"/>
    <path class="cls-2" d="M10.44,21.82,10.13,28a.92.92,0,1,0,1.84.13l.31-6h.36l.41,6A.92.92,0,0,0,14.89,28l-.52-7.64a1.94,1.94,0,0,0,0-.2V16.95l1.82-2.17,1.94,2.33v.64L18,23.55h0L17.76,28a.92.92,0,0,0,1.84.13l.24-4.53h.54l.31,4.53A.92.92,0,0,0,22.52,28l-.3-4.41h0L22,17.39v-.44l1.81-2.16,1.94,2.32v3a1.78,1.78,0,0,0,0,.24L25.37,28a.92.92,0,1,0,1.84.13l.31-6h.36l.41,6A.92.92,0,0,0,30.14,28l-.52-7.64a1.81,1.81,0,0,0,0-.2V16.95L32.07,14a.9.9,0,0,0-1.39-1.16L28.8,15.1a1.77,1.77,0,0,1-2.29.05h0l-1.94-2.29a1,1,0,0,0-1.49,0L21.18,15.1a1.77,1.77,0,0,1-2.29.05h0l-1.94-2.29a1,1,0,0,0-1.5,0L13.55,15.1a1.77,1.77,0,0,1-2.29.05L9.31,12.86A.9.9,0,1,0,7.93,14L10.5,17.1v3a1.78,1.78,0,0,0,0,.24l-.08,1.47"/>
    <path class="cls-2" d="M27.69,11.06a1.41,1.41,0,1,1-1.41,1.41,1.41,1.41,0,0,1,1.41-1.41"/>
  </g>
</svg>
