<svg id="Layer_1" data-name="Layer 1" xmlns="http://www.w3.org/2000/svg" width="40" height="40" viewBox="0 0 40 40">
  <defs>
    <style>
      .cls-1 {
        fill: #00aeef;
      }

      .cls-2 {
        fill: #fff;
      }
    </style>
  </defs>
  <title>AEH_PopHealth_SD-Icons_MASTER-2</title>
  <circle class="cls-1" cx="20" cy="20" r="20"/>
  <g>
    <path class="cls-2" d="M22.31,7.53q0,1.3-.05,2.6-.06,3.11-.11,6.21-.06,3.71-.08,7.43c0,1.47,0,2.93,0,4.4,0,.69,0,1.39,0,2.08a6,6,0,0,0,.11,2,1.24,1.24,0,0,0,.37.57,1,1,0,0,0,.59.21,1.07,1.07,0,0,0,.66-.18,1.66,1.66,0,0,0,.54-1.42c0-.76-.1-1.51-.13-2.26,0-1.3-.11-2.59-.15-3.89S24,22.92,24,21.73c0-.47-.1-1.48.23-1.87l0,0c1.24-.64,1.17-1.71,1.17-5.67,0-2.82-1.05-6.57-2.42-7.17a.55.55,0,0,0-.73.55"/>
    <path class="cls-2" d="M18.76,7c-.16,0,.07,4.09,0,4.17a.44.44,0,0,1-.4,0c-.06,0-.47-4.17-.47-4.17-.19,0-.27,4.07-.4,4.15a.41.41,0,0,1-.42,0C16.93,11.07,16.85,7,16.7,7s-.48,4.11-.59,4.17a.38.38,0,0,1-.33,0C15.56,11,15.61,7,15.48,7s-.94,3.78-.94,5.88c0,2.72.19,3.09,1.8,4.65.66.63-1,14.07.06,15.17a1.06,1.06,0,0,0,1.55,0c1.11-1.11-.59-14.47.16-15.22,1.51-1.52,1.8-1.9,1.8-4.63A24,24,0,0,0,18.76,7"/>
  </g>
</svg>
