<svg id="Layer_1" data-name="Layer 1" xmlns="http://www.w3.org/2000/svg" width="40" height="40" viewBox="0 0 40 40">
  <defs>
    <style>
      .cls-1 {
        fill: #00aeef;
      }

      .cls-2 {
        fill: #fff;
      }
    </style>
  </defs>
  <title>AEH_PopHealth_SD-Icons_MASTER-2</title>
  <circle class="cls-1" cx="20" cy="20" r="20"/>
  <g>
    <path class="cls-2" d="M20,33A13,13,0,1,1,33,20,13,13,0,0,1,20,33M20,9.4A10.6,10.6,0,1,0,30.6,20,10.62,10.62,0,0,0,20,9.4"/>
    <path class="cls-2" d="M20.74,25.55l.31,2.25h-2.1l.31-2.23a8,8,0,0,1-3.49-.77l.34-2.49a5.24,5.24,0,0,0,3.74,1.25q2,0,2-1.06a1.12,1.12,0,0,0-.65-1,7.43,7.43,0,0,0-1.56-.68l-1.83-.59a3.9,3.9,0,0,1-1.56-.93,2.09,2.09,0,0,1-.64-1.56,3,3,0,0,1,.88-2.1,4.23,4.23,0,0,1,2.77-1.11l-.31-2.23h2.1l-.31,2.23a9.3,9.3,0,0,1,1.8.29,5.56,5.56,0,0,1,1.32.49l-.22,2.26a7.54,7.54,0,0,0-3.38-1q-2.2,0-2.2.92c0,.33.22.61.65.83a9.91,9.91,0,0,0,1.6.61l1.91.57a3.35,3.35,0,0,1,1.61,1,2.82,2.82,0,0,1,.65,1.9,2.91,2.91,0,0,1-.15.93,3,3,0,0,1-.52.91,2.87,2.87,0,0,1-1.17.8,6.39,6.39,0,0,1-1.91.43"/>
  </g>
</svg>
