<svg id="Layer_1" data-name="Layer 1" xmlns="http://www.w3.org/2000/svg" width="40" height="40" viewBox="0 0 40 40">
  <defs>
    <style>
      .cls-1 {
        fill: #00aeef;
      }

      .cls-2 {
        fill: #fff;
      }
    </style>
  </defs>
  <title>AEH_PopHealth_SD-Icons_MASTER-2</title>
  <circle class="cls-1" cx="20" cy="20" r="20"/>
  <path class="cls-2" d="M29.64,12.51a22.11,22.11,0,0,0-4.4,3.77V6H20.57v.7a.57.57,0,0,1-1.15,0V6H14.76v9c-.55,5.58-4.48,8.94-6.89,10.49l2.49,3.86a22.09,22.09,0,0,0,4.4-3.77v8.75h4.67v-.9a.57.57,0,0,1,1.15,0v.9h4.67v-7.4c.55-5.58,4.48-8.94,6.89-10.49ZM20.57,30.7a.57.57,0,0,1-1.15,0V28.56a.57.57,0,0,1,1.15,0Zm0-4.8a.57.57,0,0,1-1.15,0V23.76a.57.57,0,0,1,1.15,0Zm0-4.81a.57.57,0,0,1-1.15,0V19a.57.57,0,0,1,1.15,0Zm0-4.81a.57.57,0,1,1-1.15,0V14.15a.57.57,0,0,1,1.15,0Zm0-4.8a.57.57,0,0,1-1.15,0V9.34a.57.57,0,1,1,1.15,0Z"/>
</svg>
