<svg id="Layer_1" data-name="Layer 1" xmlns="http://www.w3.org/2000/svg" width="40" height="40" viewBox="0 0 40 40">
  <defs>
    <style>
      .cls-1 {
        fill: #00aeef;
      }

      .cls-2 {
        fill: #fff;
      }
    </style>
  </defs>
  <title>AEH_PopHealth_SD-Icons_MASTER-2</title>
  <circle class="cls-1" cx="20" cy="20" r="20"/>
  <g>
    <path class="cls-2" d="M20.16,13.16a5.58,5.58,0,0,0-5.58,5.58,5.73,5.73,0,0,0,.74,2.78,14.73,14.73,0,0,1,2,5.19c.19,1.12.45,1.39,1.3,1.39h3.16c.85,0,1.11-.26,1.3-1.39a14.73,14.73,0,0,1,2-5.19,5.72,5.72,0,0,0,.74-2.78,5.58,5.58,0,0,0-5.58-5.58"/>
    <path class="cls-2" d="M22.16,29.7h-4a.3.3,0,0,0-.3.3v.2a.3.3,0,0,0,.3.3h4a.3.3,0,0,0,.3-.3V30a.3.3,0,0,0-.3-.3"/>
    <path class="cls-2" d="M22.16,30.89h-4a.3.3,0,0,0-.3.3v.2a.3.3,0,0,0,.3.3h4a.3.3,0,0,0,.3-.3v-.2a.3.3,0,0,0-.3-.3"/>
    <path class="cls-2" d="M17.87,32.28h4.58c0,1-1.22,1.64-2.29,1.64s-2.29-.65-2.29-1.64"/>
    <path class="cls-2" d="M11.69,20.38H8.55a.57.57,0,1,1,0-1.14h3.14a.57.57,0,0,1,0,1.14"/>
    <path class="cls-2" d="M13.5,13.87a.57.57,0,0,1-.4-.17L11,11.58a.57.57,0,0,1,.81-.81L13.9,12.9a.57.57,0,0,1-.4,1"/>
    <path class="cls-2" d="M26.78,13.87a.57.57,0,0,1-.4-1l2.13-2.13a.57.57,0,0,1,.81.81l-2.13,2.13a.57.57,0,0,1-.4.17"/>
    <path class="cls-2" d="M19.85,11a.57.57,0,0,1-.57-.57V7.34a.57.57,0,1,1,1.14,0v3.14a.57.57,0,0,1-.57.57"/>
    <path class="cls-2" d="M31.45,20.38H28.31a.57.57,0,0,1,0-1.14h3.14a.57.57,0,0,1,0,1.14"/>
  </g>
</svg>
