<svg id="Layer_1" data-name="Layer 1" xmlns="http://www.w3.org/2000/svg" width="40" height="40" viewBox="0 0 40 40">
  <defs>
    <style>
      .cls-1 {
        fill: #00aeef;
      }

      .cls-2 {
        fill: #fff;
      }
    </style>
  </defs>
  <title>AEH_PopHealth_SD-Icons_MASTER-2</title>
  <circle class="cls-1" cx="20" cy="20" r="20"/>
  <g>
    <path class="cls-2" d="M22.83,18.74a5.55,5.55,0,0,1,5.38-.29l.1-.31a5.77,5.77,0,0,0-5.58.29Z"/>
    <path class="cls-2" d="M22.67,19.13l-.28-.84.21-.11a6,6,0,0,1,5.83-.29l.21.11-.27.84-.29-.15A5.29,5.29,0,0,0,23,19Z"/>
    <path class="cls-2" d="M22.72,20.7a5.78,5.78,0,0,1,5.58-.29l-.1.3a5.57,5.57,0,0,0-5.38.29Z"/>
    <path class="cls-2" d="M22.67,21.4l-.28-.84.21-.11a6,6,0,0,1,5.83-.29l.21.11-.27.84L28.08,21a5.31,5.31,0,0,0-5.12.29Z"/>
    <path class="cls-2" d="M22.72,16.16a5.78,5.78,0,0,1,5.58-.29l-.1.31a5.56,5.56,0,0,0-5.38.29Z"/>
    <path class="cls-2" d="M22.67,16.87,22.38,16l.21-.11a6,6,0,0,1,5.83-.29l.21.11-.27.84-.29-.15a5.3,5.3,0,0,0-5.12.29Z"/>
    <path class="cls-2" d="M30.39,13.55V26.5c-5.14-3.26-9.59-.27-9.59.24V15.88c0-1.93,2.55-3,5.69-3a22.48,22.48,0,0,1,3.89.64l1.12-1.06a13.26,13.26,0,0,0-11.4,1c-.79-.77-5.36-3.43-11.62-.72v14.9H18a3.44,3.44,0,0,0,2,.48,3.46,3.46,0,0,0,2-.48h9.5V12.49ZM19.26,26.73c0-.51-4.45-3.49-9.59-.24V13.86a7.9,7.9,0,0,1,3.9-.95c3.14,0,5.69,1,5.69,3Z"/>
    <polygon class="cls-2" points="17.61 18.15 15.49 18.15 15.49 16.03 13.54 16.03 13.54 18.15 11.42 18.15 11.42 20.11 13.54 20.11 13.54 22.23 15.49 22.23 15.49 20.11 17.61 20.11 17.61 18.15"/>
  </g>
</svg>
