<svg id="Layer_1" data-name="Layer 1" xmlns="http://www.w3.org/2000/svg" width="40" height="40" viewBox="0 0 40 40">
  <defs>
    <style>
      .cls-1 {
        fill: #00aeef;
      }

      .cls-2 {
        fill: #fff;
      }
    </style>
  </defs>
  <title>AEH_PopHealth_SD-Icons_MASTER-2</title>
  <circle class="cls-1" cx="20" cy="20" r="20"/>
  <g>
    <path class="cls-2" d="M23.94,11.75a2.07,2.07,0,0,0,1.36-3.64h0a2.07,2.07,0,0,0-1.11-.5h-.51a2.07,2.07,0,0,0-1.11.5h0a2.07,2.07,0,0,0,1.36,3.64Z"/>
    <path class="cls-2" d="M26.55,18.09,23.74,16l.12-.4.19-.51a2.36,2.36,0,0,0-1.51-3L22.28,12h0l-.13,0-.17,0-2.43-.41a3.77,3.77,0,0,0-3,1.63l-1.31,1.71c-.65.82-.78,1.81-.28,2.21s1.24-.11,1.9-.93l1.85-2.3.53.08-.59,1.62h0L17.3,19.34l-.22.53-1.39,3.74-.34.93-2.64-.1h0l-.56-.07a3,3,0,0,0-1.75.43,1.16,1.16,0,0,0-.58.89,1.08,1.08,0,0,0,.37.81,2.88,2.88,0,0,0,1.86.67l.31.08,3.64.18a1.35,1.35,0,0,0,1-.36,3.17,3.17,0,0,0,.89-1.34l.8-2.13.38-.92,2.76,2.82.25,3h0l.15,1.79a3,3,0,0,0,.64,1.68,1.16,1.16,0,0,0,1,.47,1.08,1.08,0,0,0,.76-.47A2.88,2.88,0,0,0,25,30l-.11-1.55-.27-3.75-2.88-3.61,1.09-2.81,2.29,1.66c.84.63,1.83.73,2.22.22S27.39,18.73,26.55,18.09Z"/>
  </g>
</svg>
