<svg id="Layer_1" data-name="Layer 1" xmlns="http://www.w3.org/2000/svg" width="40" height="40" viewBox="0 0 40 40">
  <defs>
    <style>
      .cls-1 {
        fill: #00aeef;
      }

      .cls-2 {
        fill: #fff;
      }
    </style>
  </defs>
  <title>AEH_PopHealth_SD-Icons_MASTER-2</title>
  <circle class="cls-1" cx="20" cy="20" r="20"/>
  <path class="cls-2" d="M27.4,18.48,25.28,16.1a6.26,6.26,0,0,0-4.63-1.7H15.91c-3.33,0-5.5,3.81-5.5,3.81s-3.63.45-3.63,3.65c0,2,2.32,2,2.32,2h.11s0,.05,0,.08a2.36,2.36,0,0,0,4.73,0s0-.05,0-.08H24.78s0,.05,0,.08a2.36,2.36,0,1,0,4.73,0s0-.05,0-.08h.33c2.75,0,3.38-.9,3.38-1.87,0-3-5.82-3.49-5.82-3.49m-8.82.15-7,0s1.89-2.71,3.28-3a23.68,23.68,0,0,1,3.67-.14Zm2.36,0H20V15.39c5.24-.1,6.2,3.23,6.2,3.23Z"/>
</svg>
