<svg id="Layer_1" data-name="Layer 1" xmlns="http://www.w3.org/2000/svg" width="40" height="40" viewBox="0 0 40 40">
  <defs>
    <style>
      .cls-1 {
        fill: #00aeef;
      }

      .cls-2, .cls-3 {
        fill: #fff;
      }

      .cls-3 {
        stroke: #00aeef;
        stroke-linecap: round;
        stroke-linejoin: round;
        stroke-width: 1.09px;
      }
    </style>
  </defs>
  <title>AEH_PopHealth_SD-Icons_MASTER-2</title>
  <circle class="cls-1" cx="20" cy="20" r="20"/>
  <g>
    <g>
      <path class="cls-2" d="M23.83,20.08a.77.77,0,0,1,.1-.33,1.11,1.11,0,0,0,.19-.62A1.13,1.13,0,0,0,22.88,18a.55.55,0,0,1-.24,0,.64.64,0,0,1-.35-.33.58.58,0,0,1,0-.46,1.1,1.1,0,0,0,.12-.5,1.11,1.11,0,0,0-1.11-1.11,1.1,1.1,0,0,0-.66.22.69.69,0,0,1-.33.11.63.63,0,0,1-.61-.44,1.11,1.11,0,0,0-1.09-.89c-.09,0-1.1,0-2.43,1.47a7.93,7.93,0,0,1-.62.51,12.91,12.91,0,0,1,2.17.71,11.33,11.33,0,0,1,2,1.45h0l.07.06L20,19a5.54,5.54,0,0,1,.9,1.9l.2.61c.18.61.41,1.35-.18,1.59a2.48,2.48,0,0,1-.52.15,2.42,2.42,0,0,1-2.3-.9,2.17,2.17,0,0,1-.41-.86,2.84,2.84,0,0,1-.67.14,2.81,2.81,0,0,1,.66,1.13,3.87,3.87,0,0,1-.92,3.39.55.55,0,1,1-.88-.65,2.89,2.89,0,0,0,.75-2.43,2.31,2.31,0,0,0-1.28-1.3.55.55,0,0,1-.29-.76l.16-.31a.54.54,0,0,1,.61-.28c1.6.39,2-.31,2-.34a.56.56,0,0,1,.73-.24.54.54,0,0,1,.26.7A1,1,0,0,0,19,21.7a1.33,1.33,0,0,0,1.2.5c0-.09-.05-.2-.1-.35l-.19-.58a11,11,0,0,0-.61-1.45l-.12-.11L19,19.57h0l0,0a10.1,10.1,0,0,0-1.71-1.27A12.1,12.1,0,0,0,15,17.57a4.51,4.51,0,0,0-1.52.14h0c-.56.39-3.87,5-2.19,7.7a.55.55,0,0,1-.07.66L9.69,27.72l3.71,3.34,1.52-1.52a.54.54,0,0,1,.63-.1A10.93,10.93,0,0,0,17.24,29C19,28.44,22,24.93,23,23.62c1.43-1.51,1.39-2.19,1.39-2.19a1.21,1.21,0,0,0-.37-.91A.55.55,0,0,1,23.83,20.08Z"/>
      <path class="cls-2" d="M14.31,12.79a.55.55,0,1,0,.77-.77L13,9.9a.55.55,0,0,0-.77.77Z"/>
      <path class="cls-2" d="M20.32,11.89a.55.55,0,0,0,.54-.54V8.47a.54.54,0,1,0-1.09,0v2.88A.55.55,0,0,0,20.32,11.89Z"/>
      <path class="cls-2" d="M31.09,18.76H28.21a.54.54,0,0,0,0,1.09h2.88a.54.54,0,1,0,0-1.09Z"/>
      <path class="cls-2" d="M27.94,11.28a.54.54,0,0,0-.77,0L25,13.41a.55.55,0,0,0,.77.77l2.12-2.12A.55.55,0,0,0,27.94,11.28Z"/>
      <path class="cls-2" d="M27.08,23.26a.55.55,0,1,0-.77.77l2.12,2.12a.55.55,0,0,0,.77-.77Z"/>
    </g>
    <path class="cls-3" d="M19.5,19.36h0Z"/>
  </g>
</svg>
